<svg xmlns="http://www.w3.org/2000/svg" viewBox="0 0 62 62">
  <defs>
    <style>
      .cls-1 {
        fill: white;
      }

      .cls-2 {
        fill: none;
        stroke: white;
        stroke-width: 2px;
      }
    </style>
  </defs>
  <g id="Group_706" data-name="Group 706" transform="translate(-69 -948.869)">
    <g id="Group_44_1_" transform="translate(82.94 962.681)">
      <path id="Path_29_1_" class="cls-1" d="M35.649,10.4H19.436A8.881,8.881,0,0,0,10.5,19.336h0V35.549a8.881,8.881,0,0,0,8.936,8.936H35.649a8.881,8.881,0,0,0,8.936-8.936V19.336A8.962,8.962,0,0,0,35.649,10.4ZM13.181,25.336h7.532a7.756,7.756,0,1,0,14.553,3.7h0a7.693,7.693,0,0,0-1.021-3.7h7.532V35.549a6.129,6.129,0,0,1-6.128,6.128H19.436a6.129,6.129,0,0,1-6.128-6.128h0l-.128-10.213ZM27.606,24.06A5.106,5.106,0,1,1,22.5,29.166a4.964,4.964,0,0,1,5.106-5.106ZM39.223,16.4v4.34a1.083,1.083,0,0,1-.894,1.021H34.117A1.007,1.007,0,0,1,33.1,20.74V16.4a1.083,1.083,0,0,1,.894-1.021h4.468a1.112,1.112,0,0,1,.766,1.021Z" transform="translate(-10.5 -10.4)"/>
      <rect id="Rectangle_29_1_" class="cls-1" width="2.298" height="2.298" transform="translate(24.511 7.021)"/>
    </g>
    <circle id="Ellipse_9" data-name="Ellipse 9" class="cls-2" cx="30" cy="30" r="30" transform="translate(70 949.869)"/>
  </g>
</svg>
