<svg id="Group_291" data-name="Group 291" xmlns="http://www.w3.org/2000/svg" viewBox="0 0 62 62">
  <defs>
    <style>
      .cls-1 {
        fill: #0e0e0e;
      }

      .cls-2 {
        fill: none;
        stroke: #0e0e0e;
        stroke-width: 2px;
      }
    </style>
  </defs>
  <path id="Path_30_1_" class="cls-1" d="M13.253,37.68a2.471,2.471,0,0,0,.128,3.574l1.4,1.4h0a6.474,6.474,0,0,0,2.043,1.149,11.952,11.952,0,0,0,2.043.511c.383.128,7.787.766,16.979-8.553,6.638-6.638,9.191-11.617,8.553-16.979a11.952,11.952,0,0,0-.511-2.043A6.474,6.474,0,0,0,42.742,14.7l.128-.128-1.4-1.4a2.587,2.587,0,0,0-3.574-.128l-4.979,4.979A2.471,2.471,0,0,0,33.04,21.6l.894.894,1.66,1.66c-.128.128-.128.383-.255.511a24.786,24.786,0,0,1-4.34,6A24.786,24.786,0,0,1,25,35a.968.968,0,0,1-.511.255l-2.426-2.426a2.587,2.587,0,0,0-3.574-.128Z" transform="translate(3.194 3.15)"/>
  <circle id="Ellipse_8" data-name="Ellipse 8" class="cls-2" cx="30" cy="30" r="30" transform="translate(1 1)"/>
</svg>
