<?xml version="1.0" encoding="utf-8"?>
<!-- Generator: Adobe Illustrator 22.1.0, SVG Export Plug-In . SVG Version: 6.00 Build 0)  -->
<svg version="1.2" baseProfile="tiny" id="Слой_1"
	 xmlns="http://www.w3.org/2000/svg" xmlns:xlink="http://www.w3.org/1999/xlink" x="0px" y="0px" viewBox="0 0 373.8 219.4"
	 xml:space="preserve">
<g>
	<path fill-rule="evenodd" fill="#FFFFFF" d="M105.3,56.8c-10.3-0.4-15.5,0.4-19.2,0.9c-0.9-0.2-3.4,1.4-3.1,2.6
		c-2.9,8.3-5.1,17-6,26.4c-1.5,16.9,0.6,34.6,2.7,51.6c0.1,1.3,0.7,2.4,1.6,3c0.9,0.7,2.2-0.1,2.7,0c0.6,0.1,0.6,1.3,1.2,1.3
		c-1.9,2.2-7.3,3.2-10.6,3.5c-6.2,0.5-6.4-15-6.6-18.6c-0.9-15.7,0.8-33.3,3-49c2-14.6,1.9-18.3-5.9-17.9
		c-5.9,0.3-10.4,1.2-15.9,3.3c-1.7,0.7-2.5,1.4-2.2,2.2c0.2,0.5,0.9,1,2.1,1.4c-0.3,0.1-0.7,0.8-1,0.9c-3.9,0-7.5-0.2-11.3-0.2
		c-2,0.1-3.3-0.7-3.7-2c-0.2-0.3-0.2-0.7-0.3-0.9c0-0.1,0-0.2,0.1-0.4c-0.2-0.4,0.2-1,1.3-1.6c0.4-0.4,1-0.8,1.8-1.3
		c3.3-1.9,8.8-3.5,12.7-4.4c8.4-1.8,15.6-2,24.4-2.7c18.3-1.5,50.1,0.2,54.9,0.6c2.1,0.2,3.9,0.5,5.3,0.9c1.4,0.3,2.2,1,2.6,2.1
		C137.2,61.8,117.1,57.3,105.3,56.8L105.3,56.8z"/>
	<path fill-rule="evenodd" fill="#FFFFFF" d="M341.1,143.6l-0.7-3.2c-2.4-9.3-5.6-20-9-29.4c-7.5,1-14.4,2.5-19.3,3.7
		c-4.8,1.2-8.6,2.6-12.6,4.2c-0.2,0.6-0.4,1.3-0.6,1.9c-1.9,6.3-1.6,6.7-4.8,15.2c-8.8,5.4-7-2.1-4-9.2c-1,0.2-1.9,0.3-2.7,0.4
		c-2,0.3-4-0.2-4.5-1.4c-0.9-2,0.7-3.2,2.1-4.4c2.5-2,6.7-3.9,10-5.1c7.1-15.5,12.9-32.8,18.9-48.6c0.9-2.3,1.7-4.9,2.5-6.9
		c1.2-3,2.2-3.2,4.4-1.4c4.5,3.9,13,27.3,19.7,48.7c12-1.1,23.2-1.5,25.8-1.6c1.9,0,3.6,0.2,4.8,0.4c1.3,0.2,2.1,0.8,2.6,1.8
		c1.3,2.7-16.5,0.7-32.6,1.4c3.3,10.5,6,20.3,7.6,26.8c-1.9,2.1-3.1,6.4-5,8.2C342.8,146,341.3,144.5,341.1,143.6L341.1,143.6z
		 M341.1,143.6L341.1,143.6L341.1,143.6z M330.6,109.1c-0.3-1.1-0.7-2-1.1-3c-5.4-13.4-14.4-31.8-17.7-24.9c-5,9-8.2,22.4-11.1,33.2
		c5.5-1.4,10.6-2.2,16.6-3.4C321.2,110.3,325.8,109.6,330.6,109.1L330.6,109.1z"/>
	<polygon fill-rule="evenodd" fill="#FFFFFF" points="168.2,169.6 168.2,169.7 168.3,169.8 168.3,169.6 168.2,169.6 	"/>
	<path fill-rule="evenodd" fill="#FFFFFF" d="M154.7,52.8h0.6c1.2,4.2,2.5,12.7,4.8,15.3c1,1.9,2.4,5.4,2.2,6.8
		c0,0.8-0.7,1.8-1.1,2.6c-0.5,0.9-0.9,1.8-1.5,3c-1.5-3.8-3.6-7.3-5-11.3c-0.4-1.2-0.7-1.8-0.7-3.3c0.3-1.4,0.5-5.5,0.5-6.6
		C154.7,57.5,154.8,54.9,154.7,52.8L154.7,52.8z M154.7,52.8L154.7,52.8L154.7,52.8z M175.8,9.7l0.9,0.1c0-2.7-1.7-5.2-2.9-6.1
		c-3.6-2.8-4.5-3.7-8.6-3.7c-1.2,0.2-2.1,0-3,1.1c-2,0.8-3.3,3-3.8,5.7c-0.2,1-0.3,3.3-0.6,4.1c-0.4,1-0.9,1.7-1.1,3
		c-0.1,1.3-0.3,2.6-0.5,3.7c-0.7,3-1.7,6.2-3.2,9c-1,2.1-1.8,3.2-2,4c-0.4-0.1-1.4,0.6-1.6,1c-1.7,2.4-1.5,5.8-1.5,8.8
		c0,2,0.4,3.8,0.3,5.8c-0.1,2.3,0.1,8.7-0.1,9.6c-0.4,1.9,0,9.4-0.2,9.5c0,1.5,0,3,0,4.6l0.5,1.1c0.4,1.2,0.8,2,1,2.8
		c2,5.9,5.5,9.3,8.3,13.3c0.6,3.5,1,7.5,2.1,10.6c0.7,1.9,2.1,3.3,3.1,4.3c0.3,4.1,3.1,19.4,3.8,22.8c1.4,6,4.2,12.2,4.5,18.3
		c0,3.6-0.8,6-1.3,9.2l-1,5.6c-0.7,1.2-1.5,1.8-1.6,2.7c-0.2,1-0.2,2.1-0.5,2.6c-2.6,3.4-3.6,4.1-3.8,5.5c-0.2,1.8,1.1,2.4,2,6
		c0.4,1.6,0.9,9.5,1.7,10.5c0.4,0.6,0.9,0.9,1.3,1.4c-0.2,2.6-1.3,4-0.4,6.2c0.5,1.3,2,1.6,3.4,1.7c1.5,0.1,8,0.8,8.4,0.1
		c1.5,0.4,0-0.1,1.3,0c1.9-0.5,2-1.3,1.8-2.9c-0.9-0.5-2.3-0.7-4-2.4c0-0.7-1.7-1.1-1.7-1.8c-0.7-0.6-1.1-3.8-1.1-5
		c-0.1-1.6,0.1-3.3,0.2-4.3c0.9-8.5,2.9-14,3.8-22.6c0.4-4,0.5-10.8,0.8-14.6c0.3-1,1.3-3.2,1.9-4.5c0.2-1.3,0.8-5,1-6.8
		c0.9-11.3,4.1-22.2,3.1-35.9c-0.5-7.5-2.1-10.3-2.6-13.7c-0.4-3.4-2.7-5.3-2.9-6.7c-0.2-1.7-1.3-14.5-1.1-16
		c0.9-0.2,2.1-1.1,2.7-2.7c0.3-0.8,0.3-1.4,0.3-2.1c0-0.3,0.2-0.7,0.1-1c0-0.4-0.3-0.6-0.5-1c-0.3-0.7-0.8-1.7-1.4-2.5
		c-1-1.5-2.2-2.8-2.8-4.6c0.1-1.9,0.3-4.4,0.3-6.4c0.1-1.7-0.4-4.5-1.9-5.2c-1.9-0.7-2.5-0.3-3.7-0.3l-3-0.9l-0.6-0.8
		c0-1.5,0.3-3.6,0.8-4.7c0.4-0.9,0.2-1.1,2.2-1.4c0.4,0,1.1-0.1,1.2-0.3c0.2-0.6,0.2-1.4,0.4-2.1c0.4-1.8,1-3.8,1-5
		c0.2-1.5-0.6-2.6,0-3.3c0.6-0.8,0.7-2.1,0.8-2.6C175.8,10.3,175.8,10,175.8,9.7L175.8,9.7z"/>
	<path fill-rule="evenodd" fill="#FFFFFF" d="M128.8,70.9c-2.9,0-8.4,0.5-13.5,2c-4.2,1.3-8,2.9-9.9,4.2c-3.1,9.3-5,26.7-4.5,36.7
		c3.8-2.2,8.7-3.7,12.6-4.2c7.6-1,18.1-3.5,28.6-4.3c1.6-0.1,3.3,0,4.9,0c-1.2,4.4-6.3,7.6-15.2,9.5c-7.9,1.1-11,1.8-19,3
		c-8.1,1.2-10.9,3.2-10.9,6.1c0,3.8,0.8,7.3,5.4,10.6c4.6,3.3,8.7,4.9,17.3,4.9c12.1,0,25-2.6,36.3-6.4c-0.9,3.9-3.1,6.7-5.4,8
		c-10.2,5.7-24.4,3.1-35.7,2.7c-6-0.2-25.7,0.1-28.3-15.4c-1.4-8.5-0.7-17.8,0.7-25.8c0.8-5,3.1-11.1,2.4-16.5
		c-3.2-1.6-5.8-1.4-6.2-1.6c-0.5-0.2-0.7-0.9-0.7-2c0-2.8,3-3.9,8.5-7c5.5-3.2,11.9-5.9,19.2-8C136.3,61.6,143.6,71,128.8,70.9
		L128.8,70.9z"/>
	<path fill-rule="evenodd" fill="#FFFFFF" d="M234.7,61.8c-0.1,0.2-10.8,3.9-17.5,8.7c-4.8,3.5-7.2,3.2-8.1,1.7
		c-1.2-1.9-0.5-2.3,2.5-5.5c3-3.4,6.9-6.6,11.9-9.6c3.8-2.3,7-3,9.8-3c0.7,1.7,1.4,3.5,2.2,5.2C235.4,60.5,235.2,61.5,234.7,61.8
		L234.7,61.8z"/>
	<path fill-rule="evenodd" fill="#FFFFFF" d="M199.1,139.1c2.3,7.5,7.2-0.5,12.5-6.7c1.3-1.5,8.5-12.3,11.9-20.6
		c3.6-8.8,7.4-18.7,9.4-18.3c4.1,1,2.2,51.3,4.9,49.7c6.5-3.6,7.9-1.5,8-8.9c2.5-14.1-0.4-35.2-3.8-50.6c-2.6-11.4-8.1-7.4-10.3-0.3
		c-2.9,9-7.9,18.6-12.5,26.5c-4.6,7.8-14.9,22.5-17.2,20.8c-1.1-1.3-1.9-5.5-2.4-8.7c-2.1-13.5-1.5-28.8,0.8-43
		c1.5-8.7,3-27-5.7-9.7c-1.3,2.6-1.8,4.6-1.6,6.1c0.2,0.4,1.2,1.9,1.4,2.9c0.8,5.1-0.3,6.7-0.6,13.8
		C193.3,107.2,195,125.6,199.1,139.1L199.1,139.1z"/>
	<path fill-rule="evenodd" fill="#FFFFFF" d="M247.2,68.7c-1.6,1.3-1,3.4,1.3,3.4c3.3,0,7.2,1.5,8.4,5.5c-1.3,9.7-1.4,13.4-1,21.1
		c0.5,9.5,1.3,31.1,2.8,37.2c1.6,6.2,3.3,4.3,4,5.6l7,1.4c-2.8-6.1-5.3-31.9-5.3-35.5c2.2-0.3,7.1,0.4,14.2,0.1
		c10.7-0.5,21.2-20.9,23.9-30.9c1.4-5.3-0.2-10.4-4.7-15.3c-4.5-4.9-10.2-5.8-17.8-6.6C271.4,53.9,254.2,63.1,247.2,68.7L247.2,68.7
		z M247.2,68.7L247.2,68.7L247.2,68.7z M264.6,67.6c2.7-1.4,7.6-4.3,12.7-5.6c5.6-1.4,11.9-1.4,16.2,3.2c2.2,2.4,1.1,7.9-0.9,13.2
		c-2.2,6-22.3,31.9-28.7,18.8C262.5,88.1,261.2,73.8,264.6,67.6L264.6,67.6z"/>
	<path fill-rule="evenodd" fill="#FFFFFF" d="M9.2,139.1c2.3,7.5,7.2-0.5,12.5-6.7c1.3-1.5,8.5-12.3,11.9-20.6
		c3.6-8.8,6.6-18.7,8.6-18.3c4.2,1,3,51.3,5.7,49.7c6.5-3.6,7.9-1.5,8-8.9c2.5-14.1-0.4-35.2-3.8-50.6c-2.6-11.4-8.1-7.4-10.3-0.3
		c-2.9,9-7.9,18.6-12.5,26.5c-4.6,7.8-14.9,22.5-17.2,20.8c-1.1-1.3-1.9-5.5-2.4-8.7c-2.1-13.5-1.5-28.8,0.8-43
		c1.5-8.7,3-27-5.7-9.7c-1.3,2.6-1.8,4.6-1.6,6.1c0.2,0.4,1.2,1.9,1.4,2.9C5.4,83.4,4.3,85,4,92.1C3.4,107.2,5.1,125.6,9.2,139.1
		L9.2,139.1z"/>
	<path fill-rule="evenodd" fill="#FFFFFF" d="M9.7,212.6l2.8,1.1c-0.5,2-1.2,3.4-2.2,4.4c-1,0.9-2.3,1.3-3.8,1.3
		c-1.9,0-3.4-0.7-4.5-2.1c-1.4-1.7-2-4-2-6.8c0-3.1,0.6-5.4,2-7.1c1.1-1.5,2.7-2.2,4.7-2.2c1.6,0,3,0.5,4,1.6c0.8,0.8,1.4,2,1.7,3.5
		l-2.8,0.9c-0.2-1-0.6-1.7-1.1-2.2c-0.6-0.6-1.2-0.8-2-0.8c-1,0-1.9,0.4-2.6,1.4c-0.6,0.9-1,2.4-1,4.6c0,2.3,0.4,3.8,1,4.8
		c0.7,0.9,1.5,1.4,2.6,1.4c0.7,0,1.4-0.3,1.9-0.9C9,214.9,9.4,213.9,9.7,212.6L9.7,212.6z M9.7,212.6L9.7,212.6L9.7,212.6z
		 M19.6,219.1v-17.7h10.7v3h-7.8v4h7.3v3h-7.3v4.8h8.1v2.9H19.6L19.6,219.1z M19.6,219.1L19.6,219.1L19.6,219.1z M41,219.1v-14.7
		h-4.3v-3h11.4v3h-4.2v14.7H41L41,219.1z M41,219.1L41,219.1L41,219.1z M54.7,219.1v-17.7h3v7.1h4.1c1.5,0,2.7,0.5,3.6,1.4
		c0.9,1.1,1.4,2.4,1.4,4c0,1.3-0.4,2.5-1.2,3.6c-0.7,1.1-2,1.6-3.8,1.6H54.7L54.7,219.1z M54.7,219.1L54.7,219.1L54.7,219.1z
		 M57.7,211.5v4.7h3c0.8,0,1.4-0.1,1.7-0.2c0.4-0.1,0.7-0.4,1-0.8c0.2-0.4,0.4-0.8,0.4-1.4c0-1.5-1-2.3-3-2.3H57.7L57.7,211.5z
		 M57.7,211.5L57.7,211.5L57.7,211.5z M94.2,212.6l2.8,1.1c-0.4,2-1.2,3.4-2.2,4.4c-1,0.9-2.2,1.3-3.8,1.3c-1.8,0-3.4-0.7-4.5-2.1
		c-1.3-1.7-2-4-2-6.8c0-3.1,0.7-5.4,2-7.1c1.2-1.5,2.8-2.2,4.7-2.2c1.6,0,3,0.5,4.1,1.6c0.7,0.8,1.3,2,1.7,3.5l-2.9,0.9
		c-0.2-1-0.6-1.7-1.1-2.2c-0.5-0.6-1.2-0.8-1.9-0.8c-1.1,0-2,0.4-2.6,1.4c-0.7,0.9-1,2.4-1,4.6c0,2.3,0.3,3.8,1,4.8
		c0.6,0.9,1.5,1.4,2.5,1.4c0.8,0,1.4-0.3,2-0.9C93.5,214.9,93.9,213.9,94.2,212.6L94.2,212.6z M94.2,212.6L94.2,212.6L94.2,212.6z
		 M117.1,219.1H114l-1.3-4H107l-1.2,4h-3.1l5.6-17.7h3.1L117.1,219.1L117.1,219.1z M117.1,219.1L117.1,219.1L117.1,219.1z
		 M111.8,212.2l-2-6.6l-1.9,6.6H111.8L111.8,212.2z M111.8,212.2L111.8,212.2L111.8,212.2z M131.6,219.1v-14.7h-4.3v7.6
		c0,2-0.1,3.4-0.2,4.4c-0.1,0.9-0.4,1.6-0.8,2.1c-0.5,0.5-1.2,0.7-2.3,0.7c-0.2,0-0.9,0-1.8-0.1v-2.7h0.7c0.6,0,1-0.2,1.2-0.4
		c0.2-0.2,0.3-0.7,0.3-1.5v-13.1h10.1v17.7H131.6L131.6,219.1z M131.6,219.1L131.6,219.1L131.6,219.1z M141.6,210.4
		c0-2.1,0.3-3.9,0.9-5.2c0.6-1.4,1.4-2.4,2.4-3c1-0.7,2.2-1,3.7-1c2,0,3.7,0.7,5,2.3c1.3,1.6,1.9,3.9,1.9,6.8c0,3-0.7,5.3-2,6.9
		c-1.2,1.5-2.9,2.2-4.9,2.2c-2.1,0-3.8-0.7-5-2.1C142.3,215.6,141.6,213.3,141.6,210.4L141.6,210.4z M141.6,210.4L141.6,210.4
		L141.6,210.4z M144.6,210.3c0,2,0.4,3.6,1.1,4.6c0.8,1,1.7,1.5,2.9,1.5c1.1,0,2.1-0.5,2.8-1.5c0.8-1,1.1-2.6,1.1-4.7
		c0-2-0.3-3.6-1.1-4.5c-0.7-1-1.6-1.5-2.8-1.5c-1.2,0-2.2,0.5-2.9,1.5C144.9,206.7,144.6,208.2,144.6,210.3L144.6,210.3z
		 M144.6,210.3L144.6,210.3L144.6,210.3z M162.5,219.1v-17.7h2.9v7h5.7v-7h2.9v17.7h-2.9v-7.7h-5.7v7.7H162.5L162.5,219.1z
		 M162.5,219.1L162.5,219.1L162.5,219.1z M181.1,210.4c0-2.1,0.3-3.9,0.9-5.2c0.7-1.4,1.5-2.4,2.5-3c1-0.7,2.2-1,3.6-1
		c2,0,3.7,0.7,5,2.3c1.3,1.6,2,3.9,2,6.8c0,3-0.7,5.3-2.1,6.9c-1.2,1.5-2.8,2.2-4.9,2.2c-2.1,0-3.7-0.7-4.9-2.1
		C181.8,215.6,181.1,213.3,181.1,210.4L181.1,210.4z M181.1,210.4L181.1,210.4L181.1,210.4z M184.1,210.3c0,2,0.4,3.6,1.1,4.6
		c0.8,1,1.8,1.5,2.9,1.5c1.1,0,2.1-0.5,2.8-1.5c0.8-1,1.1-2.6,1.1-4.7c0-2-0.3-3.6-1-4.5c-0.8-1-1.7-1.5-2.9-1.5
		c-1.2,0-2.1,0.5-2.9,1.5C184.5,206.7,184.1,208.2,184.1,210.3L184.1,210.3z M184.1,210.3L184.1,210.3L184.1,210.3z M202,201.4h5.8
		c1.5,0,2.6,0.2,3.3,0.5c0.6,0.3,1.2,0.8,1.6,1.5c0.4,0.7,0.6,1.6,0.6,2.5c0,0.8-0.1,1.6-0.5,2.3c-0.4,0.7-0.9,1.2-1.5,1.5
		c0.9,0.3,1.6,0.9,2,1.6c0.5,0.7,0.7,1.7,0.7,2.7c0,1.3-0.3,2.4-0.9,3.3c-0.6,0.9-1.3,1.4-2.1,1.6c-0.6,0.2-2,0.2-4.1,0.2H202V201.4
		L202,201.4z M202,201.4L202,201.4L202,201.4z M204.9,204.4v4.1h1.9c1.2,0,1.9-0.1,2.1-0.1c0.6-0.1,0.9-0.3,1.2-0.6
		c0.3-0.4,0.4-0.8,0.4-1.4c0-0.5-0.1-1-0.3-1.3c-0.2-0.3-0.5-0.5-0.8-0.6c-0.4-0.1-1.3-0.1-2.8-0.1H204.9L204.9,204.4z M204.9,204.4
		L204.9,204.4L204.9,204.4z M204.9,211.4v4.8h2.7c1.2,0,1.9-0.1,2.3-0.2c0.3-0.2,0.6-0.4,0.8-0.8c0.2-0.3,0.3-0.8,0.3-1.3
		c0-0.6-0.1-1.1-0.3-1.5c-0.3-0.4-0.6-0.6-1-0.8c-0.4-0.1-1.2-0.2-2.5-0.2H204.9L204.9,211.4z M204.9,211.4L204.9,211.4L204.9,211.4
		z M232.4,219.1v-17.7h2.9v7.6c0.7-0.1,1.1-0.3,1.4-0.7c0.2-0.3,0.5-1.2,0.9-2.6c0.5-1.3,0.8-2.3,1.3-3c0.4-0.6,0.9-1,1.4-1.1
		c0.5-0.1,1.4-0.2,2.5-0.3v2.7h-0.4c-0.8,0-1.3,0.2-1.6,0.5c-0.3,0.4-0.6,1.2-0.9,2.2c-0.3,1.1-0.6,1.9-0.8,2.2
		c-0.2,0.4-0.6,0.7-1.1,1.1c0.7,0.3,1.2,0.7,1.6,1.3c0.4,0.6,0.9,1.6,1.4,3l2,4.8h-3.4l-1.7-4.5c-0.5-1.2-0.9-2-1.2-2.5
		c-0.3-0.4-0.7-0.7-1.4-0.7v7.7H232.4L232.4,219.1z M232.4,219.1L232.4,219.1L232.4,219.1z M249.3,219.1v-17.7h4.7
		c1.7,0,2.8,0.1,3.4,0.3c0.8,0.3,1.5,0.8,2.1,1.8c0.5,0.8,0.8,2,0.8,3.4c0,1.3-0.2,2.3-0.7,3.2s-1.1,1.5-1.8,1.9
		c-0.7,0.3-1.9,0.5-3.7,0.5h-1.9v6.6H249.3L249.3,219.1z M249.3,219.1L249.3,219.1L249.3,219.1z M252.2,204.4v5h1.6
		c1.1,0,1.8,0,2.2-0.2c0.4-0.1,0.7-0.4,1-0.8c0.2-0.4,0.3-0.9,0.3-1.5c0-0.6-0.1-1.1-0.3-1.5c-0.3-0.4-0.6-0.6-1-0.8
		c-0.4-0.1-1.2-0.2-2.4-0.2H252.2L252.2,204.4z M252.2,204.4L252.2,204.4L252.2,204.4z M280.4,219.1h-3.2l-1.2-4h-5.8l-1.2,4h-3.1
		l5.6-17.7h3.1L280.4,219.1L280.4,219.1z M280.4,219.1L280.4,219.1L280.4,219.1z M275,212.2l-1.9-6.6l-2,6.6H275L275,212.2z
		 M275,212.2L275,212.2L275,212.2z M295.8,212.6l2.8,1.1c-0.4,2-1.2,3.4-2.2,4.4c-1,0.9-2.2,1.3-3.8,1.3c-1.8,0-3.3-0.7-4.5-2.1
		c-1.3-1.7-2-4-2-6.8c0-3.1,0.7-5.4,2-7.1c1.2-1.5,2.8-2.2,4.7-2.2c1.6,0,3,0.5,4.1,1.6c0.7,0.8,1.3,2,1.7,3.5l-2.9,0.9
		c-0.2-1-0.6-1.7-1.1-2.2c-0.5-0.6-1.2-0.8-1.9-0.8c-1.1,0-2,0.4-2.6,1.4c-0.7,0.9-1,2.4-1,4.6c0,2.3,0.3,3.8,1,4.8
		c0.6,0.9,1.5,1.4,2.5,1.4c0.8,0,1.4-0.3,2-0.9C295.1,214.9,295.5,213.9,295.8,212.6L295.8,212.6z M295.8,212.6L295.8,212.6
		L295.8,212.6z M305.2,210.4c0-2.1,0.3-3.9,0.9-5.2c0.6-1.4,1.5-2.4,2.5-3c0.9-0.7,2.2-1,3.6-1c2,0,3.7,0.7,5,2.3
		c1.3,1.6,2,3.9,2,6.8c0,3-0.8,5.3-2.1,6.9c-1.2,1.5-2.9,2.2-4.9,2.2c-2.1,0-3.7-0.7-5-2.1C305.9,215.6,305.2,213.3,305.2,210.4
		L305.2,210.4z M305.2,210.4L305.2,210.4L305.2,210.4z M308.2,210.3c0,2,0.4,3.6,1.1,4.6c0.8,1,1.7,1.5,2.9,1.5
		c1.1,0,2.1-0.5,2.8-1.5c0.8-1,1.1-2.6,1.1-4.7c0-2-0.3-3.6-1.1-4.5c-0.7-1-1.6-1.5-2.8-1.5s-2.1,0.5-2.9,1.5
		C308.6,206.7,308.2,208.2,308.2,210.3L308.2,210.3z M308.2,210.3L308.2,210.3L308.2,210.3z M329.3,219.1v-14.7h-4.2v-3h11.4v3h-4.3
		v14.7H329.3L329.3,219.1z M329.3,219.1L329.3,219.1L329.3,219.1z M343.1,219.1v-17.7h2.9v7.1h4.1c1.6,0,2.8,0.5,3.7,1.4
		c0.9,1.1,1.3,2.4,1.3,4c0,1.3-0.3,2.5-1.1,3.6c-0.7,1.1-2,1.6-3.9,1.6H343.1L343.1,219.1z M343.1,219.1L343.1,219.1L343.1,219.1z
		 M346,211.5v4.7h3.1c0.8,0,1.3-0.1,1.7-0.2c0.4-0.1,0.7-0.4,0.9-0.8c0.3-0.4,0.4-0.8,0.4-1.4c0-1.5-0.9-2.3-2.9-2.3H346L346,211.5z
		 M346,211.5L346,211.5L346,211.5z M357.4,219.1v-17.7h2.9v17.7H357.4L357.4,219.1z"/>
</g>
</svg>
